<svg width="401" height="93" viewBox="0 0 401 93" fill="none" xmlns="http://www.w3.org/2000/svg">
<path d="M32.8545 84.0542L32.5422 84.4447C32.4287 84.3539 32.3876 84.2423 32.3733 84.1972C32.3564 84.1437 32.3513 84.0977 32.3493 84.0717C32.3452 84.0186 32.3486 83.9706 32.3514 83.9403C32.3575 83.8753 32.3706 83.7998 32.3858 83.7235C32.4171 83.5666 32.4693 83.3489 32.5392 83.0793C32.6795 82.5374 32.8992 81.7546 33.1887 80.7605C33.7681 78.7707 34.6321 75.9179 35.7142 72.4158C37.8784 65.4107 40.9172 55.7995 44.3009 45.2799L44.301 45.2798C50.0999 27.2616 53.1981 17.6906 54.9557 12.6599C55.8315 10.1531 56.3845 8.74335 56.7808 7.97565C56.9742 7.60107 57.1605 7.31685 57.3729 7.14324C57.489 7.04845 57.6252 6.97601 57.7833 6.94861C57.9407 6.92133 58.0785 6.94591 58.1848 6.97948L58.1859 6.9798C59.2037 7.30368 59.9859 7.587 60.5198 7.82967C60.7839 7.94974 61.0095 8.06969 61.1766 8.1912C61.2597 8.25166 61.3472 8.32587 61.4181 8.41613C61.4868 8.50359 61.5724 8.64789 61.5724 8.83724C61.5718 8.86317 61.5683 8.90221 61.5663 8.91628C61.5648 8.92528 61.5622 8.93971 61.5607 8.94666C61.5594 8.95325 61.5579 8.95959 61.5566 8.96539C61.5551 8.97144 61.5538 8.97688 61.5526 8.9814C61.5479 8.99989 61.542 9.0214 61.5357 9.04368C61.5228 9.08914 61.5043 9.15161 61.481 9.229C61.434 9.38448 61.3648 9.60876 61.2752 9.89632C61.0958 10.4719 60.8328 11.3058 60.4985 12.3606C59.8296 14.4706 58.8741 17.4669 57.7272 21.0536C55.4334 28.2271 52.3736 37.7633 49.3095 47.295C46.2455 56.8267 43.177 66.3542 40.866 73.5104C39.7105 77.0884 38.7442 80.0739 38.0625 82.1707C37.7216 83.219 37.4517 84.0457 37.2648 84.6135C37.1714 84.8972 37.0984 85.1172 37.0476 85.2681C37.0222 85.3433 37.0018 85.403 36.9868 85.4456C36.9795 85.4664 36.9725 85.4859 36.9663 85.5021C36.9635 85.5097 36.9592 85.5206 36.9544 85.5322C36.9517 85.5383 36.9459 85.5514 36.942 85.5595C36.9351 85.5733 36.9106 85.6153 36.8911 85.6431L36.8482 85.7003L36.7911 85.7431C36.6963 85.8142 36.6007 85.8362 36.5553 85.8445C36.5025 85.8541 36.4549 85.8557 36.4205 85.8554C36.3513 85.8549 36.2806 85.846 36.219 85.8361C36.0925 85.8156 35.938 85.779 35.7732 85.7345C35.4399 85.6446 35.0174 85.5094 34.5932 85.3602C34.1685 85.2108 33.7331 85.0442 33.374 84.8897C33.1948 84.8126 33.0294 84.7362 32.8917 84.6647C32.7657 84.5993 32.6243 84.5186 32.5223 84.4279L32.8545 84.0542ZM32.8545 84.0542C33.2688 84.4225 36.307 85.4812 36.4911 85.3431C36.6292 85.159 61.0724 9.15946 61.0724 8.83724C61.0724 8.56104 60.0597 8.10072 58.0343 7.45627C57.1596 7.18007 56.3771 9.38963 44.7769 45.433C38.0102 66.4698 32.6244 83.8701 32.8545 84.0542Z" fill="#EE6F57" stroke="#EE6F57"/>
<path d="M13.1774 37.037L13.1788 37.0362C16.6095 35.0561 19.7649 33.2596 22.0865 31.9634C23.2469 31.3155 24.2013 30.7914 24.8784 30.4315C25.2162 30.2519 25.4893 30.1109 25.686 30.0154C25.7833 29.9682 25.8691 29.9286 25.9379 29.9005C25.9712 29.8869 26.0108 29.8717 26.0508 29.8599C26.0704 29.8541 26.1006 29.846 26.1363 29.8404L26.1366 29.8404C26.1593 29.8368 26.2446 29.8236 26.347 29.8492L26.3583 29.852L26.3694 29.8553C26.4918 29.892 26.5869 29.9617 26.6433 30.0074C26.7078 30.0597 26.77 30.1211 26.8275 30.1834C26.9429 30.3082 27.0682 30.4677 27.1946 30.6423C27.449 30.9935 27.7344 31.4431 27.9934 31.8905C28.2519 32.337 28.4923 32.7954 28.6524 33.165C28.7311 33.3466 28.799 33.5262 28.8364 33.6806C28.8545 33.7554 28.8723 33.8513 28.8699 33.9512C28.868 34.0308 28.8508 34.2448 28.6634 34.401C28.6304 34.4287 28.6012 34.4474 28.6011 34.4475C28.583 34.4597 28.5619 34.4733 28.5397 34.4873C28.4947 34.5156 28.4335 34.5531 28.3586 34.5984C28.208 34.6893 27.9932 34.8168 27.7224 34.9763C27.1804 35.2956 26.4084 35.7464 25.4647 36.296C24.5275 36.8417 23.4192 37.4858 22.1971 38.1961C20.9589 38.9158 19.6038 39.7033 18.1914 40.5253L18.1872 40.5277C15.3594 42.137 12.7972 43.6422 10.9435 44.7671C10.016 45.3299 9.26901 45.7956 8.75576 46.1306C8.65711 46.195 8.56799 46.254 8.48852 46.3075C8.56799 46.361 8.65711 46.42 8.75576 46.4844C9.26901 46.8194 10.016 47.2851 10.9435 47.8479C12.7972 48.9728 15.3594 50.478 18.1872 52.0873L18.1888 52.0882C20.9969 53.6994 23.5759 55.1846 25.4647 56.2845C26.4088 56.8343 27.1821 57.2887 27.7258 57.6148C27.9972 57.7776 28.2142 57.9101 28.3675 58.0071C28.4436 58.0552 28.5083 58.0974 28.5576 58.1315C28.5817 58.1482 28.6076 58.1667 28.6312 58.1854C28.6429 58.1946 28.6588 58.2077 28.6757 58.2234L28.6759 58.2235C28.6808 58.2281 28.6914 58.2378 28.7046 58.252C28.8534 58.4032 28.8681 58.5905 28.8699 58.6638C28.8723 58.7637 28.8545 58.8597 28.8364 58.9344C28.799 59.0889 28.7311 59.2685 28.6524 59.4501C28.4923 59.8196 28.2519 60.2781 27.9934 60.7245C27.7344 61.1719 27.449 61.6215 27.1946 61.9727C27.0682 62.1473 26.9429 62.3068 26.8275 62.4317C26.77 62.4939 26.7078 62.5553 26.6433 62.6076C26.5869 62.6533 26.4918 62.723 26.3694 62.7597L26.3583 62.763L26.347 62.7658C26.2446 62.7914 26.1593 62.7782 26.1366 62.7747L26.1363 62.7746C26.1006 62.7691 26.0704 62.7609 26.0508 62.7551C26.0108 62.7433 25.9712 62.7282 25.9379 62.7146C25.8691 62.6865 25.7833 62.6468 25.686 62.5996C25.4893 62.5041 25.2162 62.3631 24.8784 62.1835C24.2013 61.8236 23.2469 61.2995 22.0865 60.6516C19.7649 59.3554 16.6095 57.5589 13.1788 55.5788L13.1774 55.578L0.748662 48.3509L0.5 48.2063V47.9186V46.3075V44.6964V44.4087L0.748662 44.2641L13.1774 37.037Z" fill="#EE6F57" stroke="#EE6F57"/>
<path d="M75.3242 40.481L75.3227 40.4801C72.4903 38.8452 69.898 37.3244 68.0127 36.1886C67.0707 35.6211 66.3018 35.1477 65.7669 34.8034C65.5005 34.632 65.2859 34.4886 65.1353 34.3797C65.0615 34.3264 64.993 34.2742 64.9391 34.2268C64.9135 34.2043 64.8784 34.1717 64.8457 34.1326C64.8295 34.1133 64.8041 34.0809 64.7805 34.0379C64.7612 34.0028 64.7153 33.9118 64.7153 33.7867C64.7153 33.6905 64.7386 33.6009 64.7536 33.5487C64.7718 33.4855 64.7959 33.4172 64.823 33.348C64.8773 33.209 64.9528 33.0414 65.0429 32.8583C65.2229 32.4923 65.4721 32.0415 65.7562 31.5912C66.0376 31.1226 66.3231 30.6934 66.5616 30.3815C66.6795 30.2274 66.7965 30.0878 66.9031 29.9851C66.9545 29.9355 67.0213 29.877 67.0984 29.831C67.1401 29.8061 67.308 29.707 67.5207 29.7511C67.5469 29.7558 67.5656 29.7612 67.5735 29.7634L67.5743 29.7636C67.5993 29.7707 67.6212 29.7787 67.6368 29.7846C67.6686 29.7968 67.7021 29.8115 67.7332 29.8259C67.797 29.8554 67.8791 29.8963 67.9754 29.946C68.1694 30.046 68.4402 30.1915 68.7772 30.3763C69.4522 30.7463 70.404 31.2799 71.5613 31.9363C73.8764 33.2493 77.0197 35.057 80.4271 37.037L80.4272 37.037L92.856 44.2641L93.1046 44.4087V44.6964V46.3075V47.9186V48.2063L92.856 48.3509L80.4272 55.578L80.4271 55.578C77.0187 57.5586 73.8627 59.3554 71.5349 60.6519C70.3714 61.2999 69.4126 61.8241 68.7317 62.1841C68.392 62.3637 68.1173 62.5046 67.9194 62.6001C67.8216 62.6473 67.7353 62.6869 67.6662 62.715C67.6328 62.7285 67.5932 62.7436 67.5533 62.7553C67.5337 62.7611 67.5036 62.7691 67.4681 62.7747L67.4677 62.7747C67.4451 62.7782 67.3599 62.7914 67.2576 62.7658L67.2463 62.763L67.2352 62.7597C67.1129 62.723 67.0178 62.6533 66.9614 62.6076C66.8968 62.5553 66.8347 62.4939 66.7772 62.4317C66.6617 62.3068 66.5364 62.1473 66.41 61.9727C66.1556 61.6215 65.8702 61.1719 65.6112 60.7245C65.3527 60.2781 65.1123 59.8196 64.9522 59.4501C64.8735 59.2685 64.8056 59.0889 64.7682 58.9344C64.7501 58.8597 64.7323 58.7637 64.7347 58.6638C64.7365 58.5905 64.7512 58.4029 64.9003 58.2517C64.9134 58.2377 64.9238 58.228 64.9288 58.2235L64.9289 58.2233C64.9458 58.2076 64.9618 58.1946 64.9734 58.1854C64.9971 58.1667 65.023 58.1482 65.0471 58.1315C65.0964 58.0973 65.1612 58.0552 65.2373 58.007C65.3908 57.91 65.608 57.7775 65.8798 57.6147C66.4243 57.2885 67.1992 56.834 68.1463 56.2842C70.0409 55.1842 72.6314 53.6991 75.4627 52.0878C78.2676 50.4784 80.8182 48.9732 82.6663 47.8483C83.5911 47.2854 84.3367 46.8197 84.8493 46.4845C84.9469 46.4208 85.0351 46.3623 85.114 46.3092C85.0333 46.2553 84.9427 46.1958 84.8424 46.1309C84.3239 45.7949 83.5696 45.3277 82.6332 44.7618C80.7617 43.6308 78.1759 42.1138 75.3242 40.481ZM85.5316 46.6019C85.5388 46.6105 85.5444 46.6164 85.547 46.619C85.7964 46.4464 85.9299 46.3389 85.9299 46.3075C85.9299 46.2763 85.796 46.1694 85.5457 45.9976C85.5431 46.0002 85.5374 46.0062 85.5302 46.015C85.5231 46.0237 85.5049 46.0465 85.4863 46.081C85.4718 46.1079 85.4299 46.1905 85.4299 46.3075C85.4299 46.4257 85.4727 46.509 85.4873 46.5358C85.5061 46.5704 85.5245 46.5933 85.5316 46.6019Z" fill="#EE6F57" stroke="#EE6F57"/>
<path d="M169.447 76.0486C169.447 75.0764 169.093 74.1042 168.563 73.132L156.455 53.8647C156.101 53.246 156.013 52.5389 156.189 51.8319C156.366 51.1248 156.72 50.5945 157.338 50.1526C159.902 48.6501 162.023 46.6173 163.702 44.0542C165.823 40.8725 166.884 37.1604 166.884 32.9181C166.884 28.6757 165.911 24.9637 163.967 21.6051C162.023 18.335 159.371 15.7719 155.924 13.9159C152.477 12.1482 148.589 11.176 144.258 11.176H128.349C127.023 11.176 125.874 11.6179 125.079 12.5018C124.195 13.3856 123.753 14.4462 123.753 15.7719V75.6067C123.753 76.9324 124.195 77.993 125.079 78.8768C125.963 79.7607 127.023 80.2026 128.349 80.2026C129.675 80.2026 130.735 79.7607 131.619 78.8768C132.503 78.0814 132.945 76.9324 132.945 75.6067V56.251C132.945 55.5439 133.122 54.9252 133.652 54.395C134.182 53.8647 134.801 53.5995 135.508 53.5995H144.258H144.346C145.318 53.5995 146.025 54.0414 146.556 54.9252L161.05 77.993C161.934 79.4955 163.26 80.2026 165.028 80.2026C166.353 80.2026 167.414 79.849 168.209 79.0536C169.005 78.2582 169.447 77.286 169.447 76.0486ZM144.258 45.1148H135.508C134.801 45.1148 134.182 44.938 133.652 44.4078C133.122 43.8775 132.945 43.2588 132.945 42.5517V22.3122C132.945 21.6051 133.122 20.9865 133.652 20.4562C134.182 19.9259 134.801 19.6607 135.508 19.6607H144.258C148.235 19.6607 151.505 20.8981 154.157 23.3728C156.72 25.8475 158.045 29.0292 158.045 32.9181C158.045 36.5417 156.72 39.4583 154.157 41.7563C151.505 44.0542 148.235 45.1148 144.258 45.1148Z" fill="#2A2A2A"/>
<path d="M221.045 58.107C221.752 57.3999 222.194 56.4277 222.194 55.2787C222.194 50.6829 221.311 46.5289 219.543 42.9052C217.775 39.3699 215.212 36.5417 211.942 34.5089C208.584 32.5645 204.695 31.5039 200.187 31.5039C195.591 31.5039 191.437 32.5645 187.814 34.6857C184.19 36.8068 181.362 39.7235 179.329 43.4355C177.296 47.1476 176.324 51.3899 176.324 56.0742C176.324 60.8468 177.385 65.0008 179.506 68.7128C181.627 72.4249 184.632 75.3415 188.521 77.4627C192.321 79.5839 196.652 80.5561 201.513 80.5561C204.164 80.5561 206.993 80.1142 209.998 79.0536C213.003 78.0814 215.477 76.7556 217.51 75.1647C218.394 74.4577 218.924 73.5739 218.924 72.5133C218.924 71.4527 218.394 70.3921 217.333 69.5083C216.626 68.978 215.742 68.6245 214.682 68.6245C213.533 68.6245 212.561 68.978 211.765 69.5967C210.528 70.5689 208.937 71.3643 206.993 71.983C205.048 72.69 203.281 72.9552 201.513 72.9552C197.005 72.9552 193.205 71.7178 190.112 69.1548C187.018 66.68 185.162 63.3215 184.544 59.1676H218.129C219.278 59.1676 220.25 58.814 221.045 58.107ZM189.67 42.6401C192.321 40.3421 195.856 39.1048 200.187 39.1048C204.076 39.1048 207.169 40.3421 209.644 42.6401C212.03 45.0264 213.533 48.2082 214.063 52.097H184.632C185.339 48.2082 187.018 45.0264 189.67 42.6401Z" fill="#2A2A2A"/>
<path d="M270.943 33.9786C270.501 33.3599 269.882 32.8296 269.175 32.4761C268.556 32.2109 267.849 32.0342 267.142 32.0342C266.347 32.0342 265.64 32.2993 264.933 32.6529C264.226 33.0064 263.784 33.5367 263.43 34.2437L248.228 67.3871L232.85 34.2437C232.496 33.5367 231.966 33.0064 231.347 32.6529C230.64 32.2993 230.022 32.0342 229.315 32.0342C228.608 32.0342 227.989 32.2109 227.459 32.4761C225.779 33.3599 224.984 34.5089 224.984 36.0998C224.984 36.7184 225.072 37.2487 225.337 37.6906L244.074 77.1975C244.605 78.2581 245.135 79.0535 245.842 79.4955C246.461 79.9374 247.256 80.1141 248.317 80.1141C250.084 80.1141 251.499 79.1419 252.382 77.1975L271.119 37.6906C271.385 37.1604 271.561 36.5417 271.561 36.0114C271.561 35.3043 271.296 34.5973 270.943 33.9786Z" fill="#2A2A2A"/>
<path d="M282.682 12.5018C281.799 13.3856 281.357 14.4462 281.357 15.7719V57.0464C281.357 61.8191 282.506 66.0614 284.98 69.7735C287.455 73.4855 290.814 76.4021 295.233 78.5233C299.652 80.6445 304.601 81.6167 310.258 81.6167C315.649 81.6167 320.51 80.6445 324.752 78.5233C328.995 76.4021 332.353 73.4855 334.74 69.7735C337.126 66.0614 338.363 61.8191 338.363 57.0464V15.7719C338.363 14.4462 337.921 13.3856 337.037 12.5018C336.154 11.6179 335.093 11.176 333.856 11.176C332.53 11.176 331.469 11.6179 330.586 12.5018C329.702 13.3856 329.26 14.4462 329.26 15.7719V57.0464C329.26 60.2282 328.376 62.968 326.785 65.4427C325.194 67.9174 322.896 69.8618 320.068 71.276C317.152 72.6901 313.881 73.3087 310.258 73.3087C306.369 73.3087 303.01 72.6901 300.005 71.276C297 69.8618 294.702 67.9174 293.023 65.4427C291.344 62.968 290.548 60.2282 290.548 57.0464V15.7719C290.548 14.4462 290.106 13.3856 289.223 12.5018C288.339 11.6179 287.278 11.176 285.953 11.176C284.627 11.176 283.566 11.6179 282.682 12.5018Z" fill="#EE6F57"/>
<path d="M363.968 78.8768C364.852 78.0814 365.294 76.9324 365.294 75.6067V58.9024C365.294 58.1954 365.559 57.5767 366.089 57.0464C366.619 56.5161 367.238 56.251 367.945 56.251H378.374C382.705 56.251 386.594 55.3672 390.041 53.4227C393.488 51.5667 396.139 49.0036 398.083 45.5567C400.028 42.2866 401 38.3978 401 34.067C401 29.6479 400.028 25.7591 398.083 22.2238C396.139 18.7769 393.488 16.037 390.041 14.0926C386.594 12.1482 382.705 11.176 378.374 11.176H360.698C359.372 11.176 358.223 11.6179 357.428 12.5018C356.544 13.3856 356.102 14.4462 356.102 15.7719V75.6067C356.102 76.9324 356.544 77.993 357.428 78.8768C358.311 79.7607 359.372 80.2026 360.698 80.2026C362.023 80.2026 363.084 79.7607 363.968 78.8768ZM388.273 43.9658C385.621 46.5289 382.351 47.7663 378.374 47.7663H367.945C367.238 47.7663 366.619 47.5011 366.089 46.9708C365.559 46.4405 365.294 45.8219 365.294 45.1148V22.3122C365.294 21.6051 365.559 20.9865 366.089 20.4562C366.619 19.9259 367.238 19.6607 367.945 19.6607H378.374C382.351 19.6607 385.621 21.0748 388.273 23.7263C390.836 26.4662 392.162 29.9131 392.162 34.067C392.162 38.1326 390.836 41.4028 388.273 43.9658Z" fill="#EE6F57"/>
</svg>
