<svg width="100" height="23" viewBox="0 0 100 23" fill="none" xmlns="http://www.w3.org/2000/svg">
<path d="M10.9443 11.1871C9.2526 16.4463 7.90615 20.7964 7.96369 20.8424C8.06726 20.9345 8.8268 21.1992 8.87283 21.1646C8.90736 21.1186 15.0182 2.11872 15.0182 2.03817C15.0182 1.96912 14.765 1.85404 14.2586 1.69292C14.04 1.62388 13.8443 2.17626 10.9443 11.1871Z" fill="#FBF6E2"/>
<path d="M3.10719 9.19618L0 11.003V11.4057V11.8085L3.10719 13.6153C4.8219 14.605 6.26041 15.4106 6.30644 15.399C6.42152 15.3645 6.90486 14.5359 6.83582 14.4784C6.8128 14.4439 5.63897 13.7649 4.23498 12.9593C2.81949 12.1538 1.66868 11.4518 1.66868 11.4057C1.66868 11.3597 2.81949 10.6577 4.23498 9.85214C5.63897 9.03506 6.8128 8.35609 6.83582 8.33307C6.90486 8.27553 6.42152 7.44695 6.30644 7.41242C6.26041 7.40091 4.8219 8.20648 3.10719 9.19618Z" fill="#FBF6E2"/>
<path d="M16.2954 7.79219C16.1573 8.01084 16.0537 8.2295 16.0537 8.27553C16.0537 8.32156 17.2275 9.02356 18.643 9.84063C20.07 10.6577 21.2324 11.3597 21.2324 11.4057C21.2324 11.4518 20.0815 12.1538 18.6776 12.9593C17.2621 13.7649 16.0882 14.4439 16.0652 14.4784C15.9962 14.5359 16.4795 15.3645 16.5946 15.399C16.6406 15.4106 18.0906 14.605 19.7938 13.6153L22.901 11.8085V11.4057V11.003L19.7938 9.19618C18.0906 8.20648 16.6521 7.38941 16.6061 7.38941C16.5716 7.3779 16.4335 7.56203 16.2954 7.79219Z" fill="#FBF6E2"/>
<path d="M41.6895 18.8409C41.6895 18.5979 41.6011 18.3548 41.4686 18.1118L38.4415 13.295C38.3531 13.1403 38.331 12.9635 38.3752 12.7868C38.4194 12.61 38.5078 12.4774 38.6624 12.3669C39.3032 11.9913 39.8335 11.4831 40.2533 10.8424C40.7836 10.0469 41.0487 9.1189 41.0487 8.05831C41.0487 6.99772 40.8057 6.06971 40.3196 5.23008C39.8335 4.41254 39.1706 3.77177 38.3089 3.30776C37.4472 2.86585 36.475 2.6228 35.3923 2.6228H31.4151C31.0836 2.6228 30.7964 2.73328 30.5975 2.95424C30.3766 3.17519 30.2661 3.44034 30.2661 3.77177V18.7305C30.2661 19.0619 30.3766 19.327 30.5975 19.548C30.8185 19.769 31.0836 19.8794 31.4151 19.8794C31.7465 19.8794 32.0117 19.769 32.2326 19.548C32.4536 19.3491 32.564 19.0619 32.564 18.7305V13.8915C32.564 13.7148 32.6082 13.5601 32.7408 13.4275C32.8734 13.295 33.0281 13.2287 33.2048 13.2287H35.3923H35.4144C35.6574 13.2287 35.8342 13.3392 35.9668 13.5601L39.5904 19.3271C39.8114 19.7027 40.1428 19.8794 40.5847 19.8794C40.9162 19.8794 41.1813 19.7911 41.3802 19.5922C41.579 19.3933 41.6895 19.1503 41.6895 18.8409ZM35.3923 11.1075H33.2048C33.0281 11.1075 32.8734 11.0633 32.7408 10.9307C32.6082 10.7982 32.564 10.6435 32.564 10.4667V5.40684C32.564 5.23008 32.6082 5.07541 32.7408 4.94284C32.8734 4.81026 33.0281 4.74398 33.2048 4.74398H35.3923C36.3866 4.74398 37.2041 5.05331 37.867 5.67199C38.5078 6.29067 38.8392 7.08611 38.8392 8.05831C38.8392 8.96423 38.5078 9.69338 37.867 10.2679C37.2041 10.8424 36.3866 11.1075 35.3923 11.1075Z" fill="#EE6F57"/>
<path d="M54.589 14.3556C54.7658 14.1788 54.8763 13.9358 54.8763 13.6485C54.8763 12.4996 54.6553 11.4611 54.2134 10.5552C53.7715 9.67134 53.1307 8.96428 52.3132 8.45608C51.4736 7.96998 50.5014 7.70483 49.3745 7.70483C48.2255 7.70483 47.187 7.96998 46.2811 8.50027C45.3752 9.03057 44.6681 9.75972 44.1599 10.6877C43.6517 11.6157 43.4087 12.6763 43.4087 13.8474C43.4087 15.0406 43.6738 16.0791 44.2041 17.0071C44.7344 17.9351 45.4857 18.6642 46.4579 19.1945C47.408 19.7248 48.4907 19.9679 49.7059 19.9679C50.3688 19.9679 51.0759 19.8574 51.8271 19.5922C52.5784 19.3492 53.197 19.0178 53.7052 18.62C53.9262 18.4433 54.0588 18.2223 54.0588 17.9572C54.0588 17.692 53.9262 17.4269 53.661 17.2059C53.4843 17.0734 53.2633 16.985 52.9982 16.985C52.7109 16.985 52.4679 17.0734 52.269 17.228C51.9597 17.4711 51.562 17.6699 51.0759 17.8246C50.5898 18.0014 50.1478 18.0677 49.7059 18.0677C48.5791 18.0677 47.629 17.7583 46.8556 17.1175C46.0823 16.4989 45.6183 15.6592 45.4636 14.6207H53.8599C54.1471 14.6207 54.3902 14.5324 54.589 14.3556ZM46.7451 10.4889C47.408 9.91439 48.2918 9.60505 49.3745 9.60505C50.3467 9.60505 51.12 9.91439 51.7387 10.4889C52.3353 11.0855 52.7109 11.8809 52.8435 12.8531H45.4857C45.6624 11.8809 46.0823 11.0855 46.7451 10.4889Z" fill="#EE6F57"/>
<path d="M67.0634 8.32351C66.9529 8.16884 66.7983 8.03626 66.6215 7.94788C66.4668 7.88159 66.2901 7.8374 66.1133 7.8374C65.9145 7.8374 65.7377 7.90369 65.5609 7.99207C65.3842 8.08045 65.2737 8.21303 65.1853 8.38979L61.3849 16.6756L57.5402 8.38979C57.4519 8.21303 57.3193 8.08045 57.1646 7.99207C56.9879 7.90369 56.8332 7.8374 56.6564 7.8374C56.4797 7.8374 56.325 7.88159 56.1924 7.94788C55.7726 8.16884 55.5737 8.45608 55.5737 8.8538C55.5737 9.00847 55.5958 9.14104 55.6621 9.25152L60.3464 19.1282C60.4789 19.3934 60.6115 19.5922 60.7883 19.7027C60.943 19.8132 61.1418 19.8574 61.407 19.8574C61.8489 19.8574 62.2024 19.6143 62.4234 19.1282L67.1076 9.25152C67.1739 9.11895 67.2181 8.96428 67.2181 8.8317C67.2181 8.65494 67.1518 8.47817 67.0634 8.32351Z" fill="#EE6F57"/>
<path d="M69.9984 2.95424C69.7775 3.17519 69.667 3.44034 69.667 3.77177V14.0904C69.667 15.2836 69.9542 16.3441 70.5729 17.2722C71.1916 18.2002 72.0312 18.9293 73.136 19.4596C74.2408 19.9899 75.4781 20.233 76.8922 20.233C78.2401 20.233 79.4553 19.9899 80.5159 19.4596C81.5765 18.9293 82.4161 18.2002 83.0127 17.2722C83.6093 16.3441 83.9186 15.2836 83.9186 14.0904V3.77177C83.9186 3.44034 83.8081 3.17519 83.5872 2.95424C83.3662 2.73328 83.1011 2.6228 82.7918 2.6228C82.4603 2.6228 82.1952 2.73328 81.9742 2.95424C81.7533 3.17519 81.6428 3.44034 81.6428 3.77177V14.0904C81.6428 14.8858 81.4218 15.5708 81.0241 16.1895C80.6264 16.8082 80.0519 17.2943 79.3449 17.6478C78.6157 18.0013 77.7982 18.156 76.8922 18.156C75.92 18.156 75.0804 18.0013 74.3291 17.6478C73.5779 17.2943 73.0034 16.8082 72.5836 16.1895C72.1638 15.5708 71.9649 14.8858 71.9649 14.0904V3.77177C71.9649 3.44034 71.8544 3.17519 71.6335 2.95424C71.4125 2.73328 71.1474 2.6228 70.8159 2.6228C70.4845 2.6228 70.2194 2.73328 69.9984 2.95424Z" fill="#FBF6E2"/>
<path d="M90.3195 19.548C90.5405 19.3491 90.651 19.0619 90.651 18.7305V14.5544C90.651 14.3776 90.7172 14.223 90.8498 14.0904C90.9824 13.9578 91.1371 13.8915 91.3138 13.8915H93.9211C95.0038 13.8915 95.976 13.6706 96.8377 13.1845C97.6995 12.7205 98.3623 12.0797 98.8484 11.218C99.3345 10.4004 99.5776 9.42824 99.5776 8.34555C99.5776 7.24078 99.3345 6.26857 98.8484 5.38475C98.3623 4.52302 97.6995 3.83806 96.8377 3.35196C95.976 2.86585 95.0038 2.6228 93.9211 2.6228H89.502C89.1706 2.6228 88.8833 2.73328 88.6845 2.95424C88.4635 3.17519 88.353 3.44034 88.353 3.77177V18.7305C88.353 19.0619 88.4635 19.327 88.6845 19.548C88.9054 19.769 89.1706 19.8794 89.502 19.8794C89.8334 19.8794 90.0986 19.769 90.3195 19.548ZM96.3958 10.8203C95.7329 11.461 94.9154 11.7704 93.9211 11.7704H91.3138C91.1371 11.7704 90.9824 11.7041 90.8498 11.5715C90.7172 11.4389 90.651 11.2843 90.651 11.1075V5.40684C90.651 5.23008 90.7172 5.07541 90.8498 4.94284C90.9824 4.81026 91.1371 4.74398 91.3138 4.74398H93.9211C94.9154 4.74398 95.7329 5.09751 96.3958 5.76037C97.0366 6.44534 97.368 7.30706 97.368 8.34555C97.368 9.36195 97.0366 10.1795 96.3958 10.8203Z" fill="#FBF6E2"/>
</svg>
